<?xml version="1.0" encoding="utf-8" standalone="no"?>
<!DOCTYPE svg PUBLIC "-//W3C//DTD SVG 1.1//EN"
  "http://www.w3.org/Graphics/SVG/1.1/DTD/svg11.dtd">
<svg xmlns:xlink="http://www.w3.org/1999/xlink" width="432pt" height="288pt" viewBox="0 0 432 288" xmlns="http://www.w3.org/2000/svg" version="1.1">
 <metadata>
  <rdf:RDF xmlns:dc="http://purl.org/dc/elements/1.1/" xmlns:cc="http://creativecommons.org/ns#" xmlns:rdf="http://www.w3.org/1999/02/22-rdf-syntax-ns#">
   <cc:Work>
    <dc:type rdf:resource="http://purl.org/dc/dcmitype/StillImage"/>
    <dc:date>2025-03-12T19:00:12.298426</dc:date>
    <dc:format>image/svg+xml</dc:format>
    <dc:creator>
     <cc:Agent>
      <dc:title>Matplotlib v3.10.0, https://matplotlib.org/</dc:title>
     </cc:Agent>
    </dc:creator>
   </cc:Work>
  </rdf:RDF>
 </metadata>
 <defs>
  <style type="text/css">*{stroke-linejoin: round; stroke-linecap: butt}</style>
 </defs>
 <g id="figure_1">
  <g id="patch_1">
   <path d="M 0 288 
L 432 288 
L 432 0 
L 0 0 
z
" style="fill: #ffffff"/>
  </g>
  <g id="axes_1">
   <g id="patch_2">
    <path d="M 39.61149 251.740072 
L 327.718481 251.740072 
L 327.718481 3.00024 
L 39.61149 3.00024 
z
" style="fill: #ffffff"/>
   </g>
   <g id="matplotlib.axis_1">
    <g id="xtick_1">
     <g id="line2d_1">
      <path d="M 39.61149 251.740072 
L 39.61149 3.00024 
" clip-path="url(#pf6ce9f6c2e)" style="fill: none; stroke: #b0b0b0; stroke-width: 0.8; stroke-linecap: square"/>
     </g>
     <g id="line2d_2">
      <defs>
       <path id="m5adf356396" d="M 0 0 
L 0 3.5 
" style="stroke: #000000; stroke-width: 0.8"/>
      </defs>
      <g>
       <use xlink:href="#m5adf356396" x="39.61149" y="251.740072" style="stroke: #000000; stroke-width: 0.8"/>
      </g>
     </g>
     <g id="text_1">
      <!-- 20 -->
      <g transform="translate(32.61274 267.098354) scale(0.11 -0.11)">
       <defs>
        <path id="DejaVuSans-32" d="M 1228 531 
L 3431 531 
L 3431 0 
L 469 0 
L 469 531 
Q 828 903 1448 1529 
Q 2069 2156 2228 2338 
Q 2531 2678 2651 2914 
Q 2772 3150 2772 3378 
Q 2772 3750 2511 3984 
Q 2250 4219 1831 4219 
Q 1534 4219 1204 4116 
Q 875 4013 500 3803 
L 500 4441 
Q 881 4594 1212 4672 
Q 1544 4750 1819 4750 
Q 2544 4750 2975 4387 
Q 3406 4025 3406 3419 
Q 3406 3131 3298 2873 
Q 3191 2616 2906 2266 
Q 2828 2175 2409 1742 
Q 1991 1309 1228 531 
z
" transform="scale(0.015625)"/>
        <path id="DejaVuSans-30" d="M 2034 4250 
Q 1547 4250 1301 3770 
Q 1056 3291 1056 2328 
Q 1056 1369 1301 889 
Q 1547 409 2034 409 
Q 2525 409 2770 889 
Q 3016 1369 3016 2328 
Q 3016 3291 2770 3770 
Q 2525 4250 2034 4250 
z
M 2034 4750 
Q 2819 4750 3233 4129 
Q 3647 3509 3647 2328 
Q 3647 1150 3233 529 
Q 2819 -91 2034 -91 
Q 1250 -91 836 529 
Q 422 1150 422 2328 
Q 422 3509 836 4129 
Q 1250 4750 2034 4750 
z
" transform="scale(0.015625)"/>
       </defs>
       <use xlink:href="#DejaVuSans-32"/>
       <use xlink:href="#DejaVuSans-30" transform="translate(63.623047 0)"/>
      </g>
     </g>
    </g>
    <g id="xtick_2">
     <g id="line2d_3">
      <path d="M 83.935642 251.740072 
L 83.935642 3.00024 
" clip-path="url(#pf6ce9f6c2e)" style="fill: none; stroke: #b0b0b0; stroke-width: 0.8; stroke-linecap: square"/>
     </g>
     <g id="line2d_4">
      <g>
       <use xlink:href="#m5adf356396" x="83.935642" y="251.740072" style="stroke: #000000; stroke-width: 0.8"/>
      </g>
     </g>
     <g id="text_2">
      <!-- 30 -->
      <g transform="translate(76.936892 267.098354) scale(0.11 -0.11)">
       <defs>
        <path id="DejaVuSans-33" d="M 2597 2516 
Q 3050 2419 3304 2112 
Q 3559 1806 3559 1356 
Q 3559 666 3084 287 
Q 2609 -91 1734 -91 
Q 1441 -91 1130 -33 
Q 819 25 488 141 
L 488 750 
Q 750 597 1062 519 
Q 1375 441 1716 441 
Q 2309 441 2620 675 
Q 2931 909 2931 1356 
Q 2931 1769 2642 2001 
Q 2353 2234 1838 2234 
L 1294 2234 
L 1294 2753 
L 1863 2753 
Q 2328 2753 2575 2939 
Q 2822 3125 2822 3475 
Q 2822 3834 2567 4026 
Q 2313 4219 1838 4219 
Q 1578 4219 1281 4162 
Q 984 4106 628 3988 
L 628 4550 
Q 988 4650 1302 4700 
Q 1616 4750 1894 4750 
Q 2613 4750 3031 4423 
Q 3450 4097 3450 3541 
Q 3450 3153 3228 2886 
Q 3006 2619 2597 2516 
z
" transform="scale(0.015625)"/>
       </defs>
       <use xlink:href="#DejaVuSans-33"/>
       <use xlink:href="#DejaVuSans-30" transform="translate(63.623047 0)"/>
      </g>
     </g>
    </g>
    <g id="xtick_3">
     <g id="line2d_5">
      <path d="M 128.259795 251.740072 
L 128.259795 3.00024 
" clip-path="url(#pf6ce9f6c2e)" style="fill: none; stroke: #b0b0b0; stroke-width: 0.8; stroke-linecap: square"/>
     </g>
     <g id="line2d_6">
      <g>
       <use xlink:href="#m5adf356396" x="128.259795" y="251.740072" style="stroke: #000000; stroke-width: 0.8"/>
      </g>
     </g>
     <g id="text_3">
      <!-- 40 -->
      <g transform="translate(121.261045 267.098354) scale(0.11 -0.11)">
       <defs>
        <path id="DejaVuSans-34" d="M 2419 4116 
L 825 1625 
L 2419 1625 
L 2419 4116 
z
M 2253 4666 
L 3047 4666 
L 3047 1625 
L 3713 1625 
L 3713 1100 
L 3047 1100 
L 3047 0 
L 2419 0 
L 2419 1100 
L 313 1100 
L 313 1709 
L 2253 4666 
z
" transform="scale(0.015625)"/>
       </defs>
       <use xlink:href="#DejaVuSans-34"/>
       <use xlink:href="#DejaVuSans-30" transform="translate(63.623047 0)"/>
      </g>
     </g>
    </g>
    <g id="xtick_4">
     <g id="line2d_7">
      <path d="M 172.583947 251.740072 
L 172.583947 3.00024 
" clip-path="url(#pf6ce9f6c2e)" style="fill: none; stroke: #b0b0b0; stroke-width: 0.8; stroke-linecap: square"/>
     </g>
     <g id="line2d_8">
      <g>
       <use xlink:href="#m5adf356396" x="172.583947" y="251.740072" style="stroke: #000000; stroke-width: 0.8"/>
      </g>
     </g>
     <g id="text_4">
      <!-- 50 -->
      <g transform="translate(165.585197 267.098354) scale(0.11 -0.11)">
       <defs>
        <path id="DejaVuSans-35" d="M 691 4666 
L 3169 4666 
L 3169 4134 
L 1269 4134 
L 1269 2991 
Q 1406 3038 1543 3061 
Q 1681 3084 1819 3084 
Q 2600 3084 3056 2656 
Q 3513 2228 3513 1497 
Q 3513 744 3044 326 
Q 2575 -91 1722 -91 
Q 1428 -91 1123 -41 
Q 819 9 494 109 
L 494 744 
Q 775 591 1075 516 
Q 1375 441 1709 441 
Q 2250 441 2565 725 
Q 2881 1009 2881 1497 
Q 2881 1984 2565 2268 
Q 2250 2553 1709 2553 
Q 1456 2553 1204 2497 
Q 953 2441 691 2322 
L 691 4666 
z
" transform="scale(0.015625)"/>
       </defs>
       <use xlink:href="#DejaVuSans-35"/>
       <use xlink:href="#DejaVuSans-30" transform="translate(63.623047 0)"/>
      </g>
     </g>
    </g>
    <g id="xtick_5">
     <g id="line2d_9">
      <path d="M 216.9081 251.740072 
L 216.9081 3.00024 
" clip-path="url(#pf6ce9f6c2e)" style="fill: none; stroke: #b0b0b0; stroke-width: 0.8; stroke-linecap: square"/>
     </g>
     <g id="line2d_10">
      <g>
       <use xlink:href="#m5adf356396" x="216.9081" y="251.740072" style="stroke: #000000; stroke-width: 0.8"/>
      </g>
     </g>
     <g id="text_5">
      <!-- 60 -->
      <g transform="translate(209.90935 267.098354) scale(0.11 -0.11)">
       <defs>
        <path id="DejaVuSans-36" d="M 2113 2584 
Q 1688 2584 1439 2293 
Q 1191 2003 1191 1497 
Q 1191 994 1439 701 
Q 1688 409 2113 409 
Q 2538 409 2786 701 
Q 3034 994 3034 1497 
Q 3034 2003 2786 2293 
Q 2538 2584 2113 2584 
z
M 3366 4563 
L 3366 3988 
Q 3128 4100 2886 4159 
Q 2644 4219 2406 4219 
Q 1781 4219 1451 3797 
Q 1122 3375 1075 2522 
Q 1259 2794 1537 2939 
Q 1816 3084 2150 3084 
Q 2853 3084 3261 2657 
Q 3669 2231 3669 1497 
Q 3669 778 3244 343 
Q 2819 -91 2113 -91 
Q 1303 -91 875 529 
Q 447 1150 447 2328 
Q 447 3434 972 4092 
Q 1497 4750 2381 4750 
Q 2619 4750 2861 4703 
Q 3103 4656 3366 4563 
z
" transform="scale(0.015625)"/>
       </defs>
       <use xlink:href="#DejaVuSans-36"/>
       <use xlink:href="#DejaVuSans-30" transform="translate(63.623047 0)"/>
      </g>
     </g>
    </g>
    <g id="xtick_6">
     <g id="line2d_11">
      <path d="M 261.232252 251.740072 
L 261.232252 3.00024 
" clip-path="url(#pf6ce9f6c2e)" style="fill: none; stroke: #b0b0b0; stroke-width: 0.8; stroke-linecap: square"/>
     </g>
     <g id="line2d_12">
      <g>
       <use xlink:href="#m5adf356396" x="261.232252" y="251.740072" style="stroke: #000000; stroke-width: 0.8"/>
      </g>
     </g>
     <g id="text_6">
      <!-- 70 -->
      <g transform="translate(254.233502 267.098354) scale(0.11 -0.11)">
       <defs>
        <path id="DejaVuSans-37" d="M 525 4666 
L 3525 4666 
L 3525 4397 
L 1831 0 
L 1172 0 
L 2766 4134 
L 525 4134 
L 525 4666 
z
" transform="scale(0.015625)"/>
       </defs>
       <use xlink:href="#DejaVuSans-37"/>
       <use xlink:href="#DejaVuSans-30" transform="translate(63.623047 0)"/>
      </g>
     </g>
    </g>
    <g id="xtick_7">
     <g id="line2d_13">
      <path d="M 305.556405 251.740072 
L 305.556405 3.00024 
" clip-path="url(#pf6ce9f6c2e)" style="fill: none; stroke: #b0b0b0; stroke-width: 0.8; stroke-linecap: square"/>
     </g>
     <g id="line2d_14">
      <g>
       <use xlink:href="#m5adf356396" x="305.556405" y="251.740072" style="stroke: #000000; stroke-width: 0.8"/>
      </g>
     </g>
     <g id="text_7">
      <!-- 80 -->
      <g transform="translate(298.557655 267.098354) scale(0.11 -0.11)">
       <defs>
        <path id="DejaVuSans-38" d="M 2034 2216 
Q 1584 2216 1326 1975 
Q 1069 1734 1069 1313 
Q 1069 891 1326 650 
Q 1584 409 2034 409 
Q 2484 409 2743 651 
Q 3003 894 3003 1313 
Q 3003 1734 2745 1975 
Q 2488 2216 2034 2216 
z
M 1403 2484 
Q 997 2584 770 2862 
Q 544 3141 544 3541 
Q 544 4100 942 4425 
Q 1341 4750 2034 4750 
Q 2731 4750 3128 4425 
Q 3525 4100 3525 3541 
Q 3525 3141 3298 2862 
Q 3072 2584 2669 2484 
Q 3125 2378 3379 2068 
Q 3634 1759 3634 1313 
Q 3634 634 3220 271 
Q 2806 -91 2034 -91 
Q 1263 -91 848 271 
Q 434 634 434 1313 
Q 434 1759 690 2068 
Q 947 2378 1403 2484 
z
M 1172 3481 
Q 1172 3119 1398 2916 
Q 1625 2713 2034 2713 
Q 2441 2713 2670 2916 
Q 2900 3119 2900 3481 
Q 2900 3844 2670 4047 
Q 2441 4250 2034 4250 
Q 1625 4250 1398 4047 
Q 1172 3844 1172 3481 
z
" transform="scale(0.015625)"/>
       </defs>
       <use xlink:href="#DejaVuSans-38"/>
       <use xlink:href="#DejaVuSans-30" transform="translate(63.623047 0)"/>
      </g>
     </g>
    </g>
    <g id="text_8">
     <!-- SiO$_{\mathrm{2}}$ (wt.%) -->
     <g transform="translate(149.104986 282.504135) scale(0.12 -0.12)">
      <defs>
       <path id="DejaVuSans-53" d="M 3425 4513 
L 3425 3897 
Q 3066 4069 2747 4153 
Q 2428 4238 2131 4238 
Q 1616 4238 1336 4038 
Q 1056 3838 1056 3469 
Q 1056 3159 1242 3001 
Q 1428 2844 1947 2747 
L 2328 2669 
Q 3034 2534 3370 2195 
Q 3706 1856 3706 1288 
Q 3706 609 3251 259 
Q 2797 -91 1919 -91 
Q 1588 -91 1214 -16 
Q 841 59 441 206 
L 441 856 
Q 825 641 1194 531 
Q 1563 422 1919 422 
Q 2459 422 2753 634 
Q 3047 847 3047 1241 
Q 3047 1584 2836 1778 
Q 2625 1972 2144 2069 
L 1759 2144 
Q 1053 2284 737 2584 
Q 422 2884 422 3419 
Q 422 4038 858 4394 
Q 1294 4750 2059 4750 
Q 2388 4750 2728 4690 
Q 3069 4631 3425 4513 
z
" transform="scale(0.015625)"/>
       <path id="DejaVuSans-69" d="M 603 3500 
L 1178 3500 
L 1178 0 
L 603 0 
L 603 3500 
z
M 603 4863 
L 1178 4863 
L 1178 4134 
L 603 4134 
L 603 4863 
z
" transform="scale(0.015625)"/>
       <path id="DejaVuSans-4f" d="M 2522 4238 
Q 1834 4238 1429 3725 
Q 1025 3213 1025 2328 
Q 1025 1447 1429 934 
Q 1834 422 2522 422 
Q 3209 422 3611 934 
Q 4013 1447 4013 2328 
Q 4013 3213 3611 3725 
Q 3209 4238 2522 4238 
z
M 2522 4750 
Q 3503 4750 4090 4092 
Q 4678 3434 4678 2328 
Q 4678 1225 4090 567 
Q 3503 -91 2522 -91 
Q 1538 -91 948 565 
Q 359 1222 359 2328 
Q 359 3434 948 4092 
Q 1538 4750 2522 4750 
z
" transform="scale(0.015625)"/>
       <path id="DejaVuSans-20" transform="scale(0.015625)"/>
       <path id="DejaVuSans-28" d="M 1984 4856 
Q 1566 4138 1362 3434 
Q 1159 2731 1159 2009 
Q 1159 1288 1364 580 
Q 1569 -128 1984 -844 
L 1484 -844 
Q 1016 -109 783 600 
Q 550 1309 550 2009 
Q 550 2706 781 3412 
Q 1013 4119 1484 4856 
L 1984 4856 
z
" transform="scale(0.015625)"/>
       <path id="DejaVuSans-77" d="M 269 3500 
L 844 3500 
L 1563 769 
L 2278 3500 
L 2956 3500 
L 3675 769 
L 4391 3500 
L 4966 3500 
L 4050 0 
L 3372 0 
L 2619 2869 
L 1863 0 
L 1184 0 
L 269 3500 
z
" transform="scale(0.015625)"/>
       <path id="DejaVuSans-74" d="M 1172 4494 
L 1172 3500 
L 2356 3500 
L 2356 3053 
L 1172 3053 
L 1172 1153 
Q 1172 725 1289 603 
Q 1406 481 1766 481 
L 2356 481 
L 2356 0 
L 1766 0 
Q 1100 0 847 248 
Q 594 497 594 1153 
L 594 3053 
L 172 3053 
L 172 3500 
L 594 3500 
L 594 4494 
L 1172 4494 
z
" transform="scale(0.015625)"/>
       <path id="DejaVuSans-2e" d="M 684 794 
L 1344 794 
L 1344 0 
L 684 0 
L 684 794 
z
" transform="scale(0.015625)"/>
       <path id="DejaVuSans-25" d="M 4653 2053 
Q 4381 2053 4226 1822 
Q 4072 1591 4072 1178 
Q 4072 772 4226 539 
Q 4381 306 4653 306 
Q 4919 306 5073 539 
Q 5228 772 5228 1178 
Q 5228 1588 5073 1820 
Q 4919 2053 4653 2053 
z
M 4653 2450 
Q 5147 2450 5437 2106 
Q 5728 1763 5728 1178 
Q 5728 594 5436 251 
Q 5144 -91 4653 -91 
Q 4153 -91 3862 251 
Q 3572 594 3572 1178 
Q 3572 1766 3864 2108 
Q 4156 2450 4653 2450 
z
M 1428 4353 
Q 1159 4353 1004 4120 
Q 850 3888 850 3481 
Q 850 3069 1003 2837 
Q 1156 2606 1428 2606 
Q 1700 2606 1854 2837 
Q 2009 3069 2009 3481 
Q 2009 3884 1853 4118 
Q 1697 4353 1428 4353 
z
M 4250 4750 
L 4750 4750 
L 1831 -91 
L 1331 -91 
L 4250 4750 
z
M 1428 4750 
Q 1922 4750 2215 4408 
Q 2509 4066 2509 3481 
Q 2509 2891 2217 2550 
Q 1925 2209 1428 2209 
Q 931 2209 642 2551 
Q 353 2894 353 3481 
Q 353 4063 643 4406 
Q 934 4750 1428 4750 
z
" transform="scale(0.015625)"/>
       <path id="DejaVuSans-29" d="M 513 4856 
L 1013 4856 
Q 1481 4119 1714 3412 
Q 1947 2706 1947 2009 
Q 1947 1309 1714 600 
Q 1481 -109 1013 -844 
L 513 -844 
Q 928 -128 1133 580 
Q 1338 1288 1338 2009 
Q 1338 2731 1133 3434 
Q 928 4138 513 4856 
z
" transform="scale(0.015625)"/>
      </defs>
      <use xlink:href="#DejaVuSans-53" transform="translate(0 0.015625)"/>
      <use xlink:href="#DejaVuSans-69" transform="translate(63.476562 0.015625)"/>
      <use xlink:href="#DejaVuSans-4f" transform="translate(91.259766 0.015625)"/>
      <use xlink:href="#DejaVuSans-32" transform="translate(170.927734 -16.390625) scale(0.7)"/>
      <use xlink:href="#DejaVuSans-20" transform="translate(218.198242 0.015625)"/>
      <use xlink:href="#DejaVuSans-28" transform="translate(249.985352 0.015625)"/>
      <use xlink:href="#DejaVuSans-77" transform="translate(288.999023 0.015625)"/>
      <use xlink:href="#DejaVuSans-74" transform="translate(370.786133 0.015625)"/>
      <use xlink:href="#DejaVuSans-2e" transform="translate(409.995117 0.015625)"/>
      <use xlink:href="#DejaVuSans-25" transform="translate(441.782227 0.015625)"/>
      <use xlink:href="#DejaVuSans-29" transform="translate(536.801758 0.015625)"/>
     </g>
    </g>
   </g>
   <g id="matplotlib.axis_2">
    <g id="ytick_1">
     <g id="line2d_15">
      <path d="M 39.61149 241.375913 
L 327.718481 241.375913 
" clip-path="url(#pf6ce9f6c2e)" style="fill: none; stroke: #b0b0b0; stroke-width: 0.8; stroke-linecap: square"/>
     </g>
     <g id="line2d_16">
      <defs>
       <path id="m58e7aad1e5" d="M 0 0 
L -3.5 0 
" style="stroke: #000000; stroke-width: 0.8"/>
      </defs>
      <g>
       <use xlink:href="#m58e7aad1e5" x="39.61149" y="241.375913" style="stroke: #000000; stroke-width: 0.8"/>
      </g>
     </g>
     <g id="text_9">
      <!-- 0 -->
      <g transform="translate(25.61274 245.555053) scale(0.11 -0.11)">
       <use xlink:href="#DejaVuSans-30"/>
      </g>
     </g>
    </g>
    <g id="ytick_2">
     <g id="line2d_17">
      <path d="M 39.61149 189.555114 
L 327.718481 189.555114 
" clip-path="url(#pf6ce9f6c2e)" style="fill: none; stroke: #b0b0b0; stroke-width: 0.8; stroke-linecap: square"/>
     </g>
     <g id="line2d_18">
      <g>
       <use xlink:href="#m58e7aad1e5" x="39.61149" y="189.555114" style="stroke: #000000; stroke-width: 0.8"/>
      </g>
     </g>
     <g id="text_10">
      <!-- 10 -->
      <g transform="translate(18.61399 193.734255) scale(0.11 -0.11)">
       <defs>
        <path id="DejaVuSans-31" d="M 794 531 
L 1825 531 
L 1825 4091 
L 703 3866 
L 703 4441 
L 1819 4666 
L 2450 4666 
L 2450 531 
L 3481 531 
L 3481 0 
L 794 0 
L 794 531 
z
" transform="scale(0.015625)"/>
       </defs>
       <use xlink:href="#DejaVuSans-31"/>
       <use xlink:href="#DejaVuSans-30" transform="translate(63.623047 0)"/>
      </g>
     </g>
    </g>
    <g id="ytick_3">
     <g id="line2d_19">
      <path d="M 39.61149 137.734316 
L 327.718481 137.734316 
" clip-path="url(#pf6ce9f6c2e)" style="fill: none; stroke: #b0b0b0; stroke-width: 0.8; stroke-linecap: square"/>
     </g>
     <g id="line2d_20">
      <g>
       <use xlink:href="#m58e7aad1e5" x="39.61149" y="137.734316" style="stroke: #000000; stroke-width: 0.8"/>
      </g>
     </g>
     <g id="text_11">
      <!-- 20 -->
      <g transform="translate(18.61399 141.913457) scale(0.11 -0.11)">
       <use xlink:href="#DejaVuSans-32"/>
       <use xlink:href="#DejaVuSans-30" transform="translate(63.623047 0)"/>
      </g>
     </g>
    </g>
    <g id="ytick_4">
     <g id="line2d_21">
      <path d="M 39.61149 85.913517 
L 327.718481 85.913517 
" clip-path="url(#pf6ce9f6c2e)" style="fill: none; stroke: #b0b0b0; stroke-width: 0.8; stroke-linecap: square"/>
     </g>
     <g id="line2d_22">
      <g>
       <use xlink:href="#m58e7aad1e5" x="39.61149" y="85.913517" style="stroke: #000000; stroke-width: 0.8"/>
      </g>
     </g>
     <g id="text_12">
      <!-- 30 -->
      <g transform="translate(18.61399 90.092658) scale(0.11 -0.11)">
       <use xlink:href="#DejaVuSans-33"/>
       <use xlink:href="#DejaVuSans-30" transform="translate(63.623047 0)"/>
      </g>
     </g>
    </g>
    <g id="ytick_5">
     <g id="line2d_23">
      <path d="M 39.61149 34.092719 
L 327.718481 34.092719 
" clip-path="url(#pf6ce9f6c2e)" style="fill: none; stroke: #b0b0b0; stroke-width: 0.8; stroke-linecap: square"/>
     </g>
     <g id="line2d_24">
      <g>
       <use xlink:href="#m58e7aad1e5" x="39.61149" y="34.092719" style="stroke: #000000; stroke-width: 0.8"/>
      </g>
     </g>
     <g id="text_13">
      <!-- 40 -->
      <g transform="translate(18.61399 38.27186) scale(0.11 -0.11)">
       <use xlink:href="#DejaVuSans-34"/>
       <use xlink:href="#DejaVuSans-30" transform="translate(63.623047 0)"/>
      </g>
     </g>
    </g>
    <g id="text_14">
     <!-- Na$_{\mathrm{2}}$O + K$_{\mathrm{2}}$O (wt.%) -->
     <g transform="translate(12.118365 185.030156) rotate(-90) scale(0.12 -0.12)">
      <defs>
       <path id="DejaVuSans-4e" d="M 628 4666 
L 1478 4666 
L 3547 763 
L 3547 4666 
L 4159 4666 
L 4159 0 
L 3309 0 
L 1241 3903 
L 1241 0 
L 628 0 
L 628 4666 
z
" transform="scale(0.015625)"/>
       <path id="DejaVuSans-61" d="M 2194 1759 
Q 1497 1759 1228 1600 
Q 959 1441 959 1056 
Q 959 750 1161 570 
Q 1363 391 1709 391 
Q 2188 391 2477 730 
Q 2766 1069 2766 1631 
L 2766 1759 
L 2194 1759 
z
M 3341 1997 
L 3341 0 
L 2766 0 
L 2766 531 
Q 2569 213 2275 61 
Q 1981 -91 1556 -91 
Q 1019 -91 701 211 
Q 384 513 384 1019 
Q 384 1609 779 1909 
Q 1175 2209 1959 2209 
L 2766 2209 
L 2766 2266 
Q 2766 2663 2505 2880 
Q 2244 3097 1772 3097 
Q 1472 3097 1187 3025 
Q 903 2953 641 2809 
L 641 3341 
Q 956 3463 1253 3523 
Q 1550 3584 1831 3584 
Q 2591 3584 2966 3190 
Q 3341 2797 3341 1997 
z
" transform="scale(0.015625)"/>
       <path id="DejaVuSans-2b" d="M 2944 4013 
L 2944 2272 
L 4684 2272 
L 4684 1741 
L 2944 1741 
L 2944 0 
L 2419 0 
L 2419 1741 
L 678 1741 
L 678 2272 
L 2419 2272 
L 2419 4013 
L 2944 4013 
z
" transform="scale(0.015625)"/>
       <path id="DejaVuSans-4b" d="M 628 4666 
L 1259 4666 
L 1259 2694 
L 3353 4666 
L 4166 4666 
L 1850 2491 
L 4331 0 
L 3500 0 
L 1259 2247 
L 1259 0 
L 628 0 
L 628 4666 
z
" transform="scale(0.015625)"/>
      </defs>
      <use xlink:href="#DejaVuSans-4e" transform="translate(0 0.125)"/>
      <use xlink:href="#DejaVuSans-61" transform="translate(74.804688 0.125)"/>
      <use xlink:href="#DejaVuSans-32" transform="translate(137.041016 -16.28125) scale(0.7)"/>
      <use xlink:href="#DejaVuSans-4f" transform="translate(184.311523 0.125)"/>
      <use xlink:href="#DejaVuSans-20" transform="translate(263.022461 0.125)"/>
      <use xlink:href="#DejaVuSans-2b" transform="translate(294.80957 0.125)"/>
      <use xlink:href="#DejaVuSans-20" transform="translate(378.598633 0.125)"/>
      <use xlink:href="#DejaVuSans-4b" transform="translate(410.385742 0.125)"/>
      <use xlink:href="#DejaVuSans-32" transform="translate(476.918945 -16.28125) scale(0.7)"/>
      <use xlink:href="#DejaVuSans-4f" transform="translate(524.189453 0.125)"/>
      <use xlink:href="#DejaVuSans-20" transform="translate(602.900391 0.125)"/>
      <use xlink:href="#DejaVuSans-28" transform="translate(634.6875 0.125)"/>
      <use xlink:href="#DejaVuSans-77" transform="translate(673.701172 0.125)"/>
      <use xlink:href="#DejaVuSans-74" transform="translate(755.488281 0.125)"/>
      <use xlink:href="#DejaVuSans-2e" transform="translate(794.697266 0.125)"/>
      <use xlink:href="#DejaVuSans-25" transform="translate(826.484375 0.125)"/>
      <use xlink:href="#DejaVuSans-29" transform="translate(921.503906 0.125)"/>
     </g>
    </g>
   </g>
   <g id="line2d_25">
    <path d="M 206.270303 180.745579 
L 164.007224 158.462635 
" clip-path="url(#pf6ce9f6c2e)" style="fill: none; stroke: #000000; stroke-linecap: square"/>
   </g>
   <g id="patch_3">
    <path d="M 39.61149 251.740072 
L 39.61149 3.00024 
" style="fill: none; stroke: #000000; stroke-width: 0.8; stroke-linejoin: miter; stroke-linecap: square"/>
   </g>
   <g id="patch_4">
    <path d="M 327.718481 251.740072 
L 327.718481 3.00024 
" style="fill: none; stroke: #000000; stroke-width: 0.8; stroke-linejoin: miter; stroke-linecap: square"/>
   </g>
   <g id="patch_5">
    <path d="M 39.61149 251.740072 
L 327.718481 251.740072 
" style="fill: none; stroke: #000000; stroke-width: 0.8; stroke-linejoin: miter; stroke-linecap: square"/>
   </g>
   <g id="patch_6">
    <path d="M 39.61149 3.00024 
L 327.718481 3.00024 
" style="fill: none; stroke: #000000; stroke-width: 0.8; stroke-linejoin: miter; stroke-linecap: square"/>
   </g>
   <g id="line2d_26">
    <path d="M 132.69221 241.375913 
L 132.69221 205.101354 
" clip-path="url(#pf6ce9f6c2e)" style="fill: none; stroke: #000000; stroke-linecap: square"/>
   </g>
   <g id="line2d_27">
    <path d="M 150.421871 241.375913 
L 150.421871 215.465514 
" clip-path="url(#pf6ce9f6c2e)" style="fill: none; stroke: #000000; stroke-linecap: square"/>
   </g>
   <g id="line2d_28">
    <path d="M 132.69221 205.101354 
L 183.664986 168.826795 
" clip-path="url(#pf6ce9f6c2e)" style="fill: none; stroke: #000000; stroke-linecap: square"/>
   </g>
   <g id="line2d_29">
    <path d="M 150.421871 215.465514 
L 181.448778 215.465514 
" clip-path="url(#pf6ce9f6c2e)" style="fill: none; stroke: #000000; stroke-linecap: square"/>
   </g>
   <g id="line2d_30">
    <path d="M 150.421871 215.465514 
L 221.340515 171.417835 
" clip-path="url(#pf6ce9f6c2e)" style="fill: none; stroke: #000000; stroke-linecap: square"/>
   </g>
   <g id="line2d_31">
    <path d="M 181.448778 215.465514 
L 256.799837 199.919274 
" clip-path="url(#pf6ce9f6c2e)" style="fill: none; stroke: #000000; stroke-linecap: square"/>
   </g>
   <g id="line2d_32">
    <path d="M 181.448778 241.375913 
L 181.448778 215.465514 
" clip-path="url(#pf6ce9f6c2e)" style="fill: none; stroke: #000000; stroke-linecap: square"/>
   </g>
   <g id="line2d_33">
    <path d="M 203.610854 241.375913 
L 203.610854 210.801642 
" clip-path="url(#pf6ce9f6c2e)" style="fill: none; stroke: #000000; stroke-linecap: square"/>
   </g>
   <g id="line2d_34">
    <path d="M 230.205346 241.375913 
L 230.205346 205.101354 
" clip-path="url(#pf6ce9f6c2e)" style="fill: none; stroke: #000000; stroke-linecap: square"/>
   </g>
   <g id="line2d_35">
    <path d="M 181.448778 215.465514 
L 169.924498 203.54673 
" clip-path="url(#pf6ce9f6c2e)" style="fill: none; stroke: #000000; stroke-linecap: square"/>
   </g>
   <g id="line2d_36">
    <path d="M 203.610854 210.801642 
L 185.881193 193.18257 
" clip-path="url(#pf6ce9f6c2e)" style="fill: none; stroke: #000000; stroke-linecap: square"/>
   </g>
   <g id="line2d_37">
    <path d="M 230.205346 205.101354 
L 206.270303 180.745579 
" clip-path="url(#pf6ce9f6c2e)" style="fill: none; stroke: #000000; stroke-linecap: square"/>
   </g>
   <g id="line2d_38">
    <path d="M 256.799837 199.919274 
L 256.799837 174.008875 
" clip-path="url(#pf6ce9f6c2e)" style="fill: none; stroke: #000000; stroke-linecap: square"/>
   </g>
   <g id="line2d_39">
    <path d="M 256.799837 199.919274 
L 296.691574 241.375913 
" clip-path="url(#pf6ce9f6c2e)" style="fill: none; stroke: #000000; stroke-linecap: square"/>
   </g>
   <g id="line2d_40">
    <path d="M 169.924498 203.54673 
L 150.421871 192.664362 
" clip-path="url(#pf6ce9f6c2e)" style="fill: none; stroke: #000000; stroke-linecap: square"/>
   </g>
   <g id="line2d_41">
    <path d="M 185.881193 193.18257 
L 165.492083 181.781995 
" clip-path="url(#pf6ce9f6c2e)" style="fill: none; stroke: #000000; stroke-linecap: square"/>
   </g>
   <g id="legend_1">
    <g id="patch_7">
     <path d="M 339.345348 165.565469 
L 431.33441 165.565469 
L 431.33441 89.174844 
L 339.345348 89.174844 
z
" style="fill: #ffffff; opacity: 0.8; stroke: #000000; stroke-linejoin: miter"/>
    </g>
    <g id="line2d_42">
     <defs>
      <path id="m6b4b1fd8d2" d="M 0 5 
C 1.326016 5 2.597899 4.473168 3.535534 3.535534 
C 4.473168 2.597899 5 1.326016 5 0 
C 5 -1.326016 4.473168 -2.597899 3.535534 -3.535534 
C 2.597899 -4.473168 1.326016 -5 0 -5 
C -1.326016 -5 -2.597899 -4.473168 -3.535534 -3.535534 
C -4.473168 -2.597899 -5 -1.326016 -5 0 
C -5 1.326016 -4.473168 2.597899 -3.535534 3.535534 
C -2.597899 4.473168 -1.326016 5 0 5 
z
" style="stroke: #000000"/>
     </defs>
     <g>
      <use xlink:href="#m6b4b1fd8d2" x="353.345348" y="97.273281" style="fill: #ff5e78; stroke: #000000"/>
     </g>
    </g>
    <g id="text_15">
     <!-- Kress1991 -->
     <g transform="translate(371.345348 100.773281) scale(0.1 -0.1)">
      <defs>
       <path id="DejaVuSans-72" d="M 2631 2963 
Q 2534 3019 2420 3045 
Q 2306 3072 2169 3072 
Q 1681 3072 1420 2755 
Q 1159 2438 1159 1844 
L 1159 0 
L 581 0 
L 581 3500 
L 1159 3500 
L 1159 2956 
Q 1341 3275 1631 3429 
Q 1922 3584 2338 3584 
Q 2397 3584 2469 3576 
Q 2541 3569 2628 3553 
L 2631 2963 
z
" transform="scale(0.015625)"/>
       <path id="DejaVuSans-65" d="M 3597 1894 
L 3597 1613 
L 953 1613 
Q 991 1019 1311 708 
Q 1631 397 2203 397 
Q 2534 397 2845 478 
Q 3156 559 3463 722 
L 3463 178 
Q 3153 47 2828 -22 
Q 2503 -91 2169 -91 
Q 1331 -91 842 396 
Q 353 884 353 1716 
Q 353 2575 817 3079 
Q 1281 3584 2069 3584 
Q 2775 3584 3186 3129 
Q 3597 2675 3597 1894 
z
M 3022 2063 
Q 3016 2534 2758 2815 
Q 2500 3097 2075 3097 
Q 1594 3097 1305 2825 
Q 1016 2553 972 2059 
L 3022 2063 
z
" transform="scale(0.015625)"/>
       <path id="DejaVuSans-73" d="M 2834 3397 
L 2834 2853 
Q 2591 2978 2328 3040 
Q 2066 3103 1784 3103 
Q 1356 3103 1142 2972 
Q 928 2841 928 2578 
Q 928 2378 1081 2264 
Q 1234 2150 1697 2047 
L 1894 2003 
Q 2506 1872 2764 1633 
Q 3022 1394 3022 966 
Q 3022 478 2636 193 
Q 2250 -91 1575 -91 
Q 1294 -91 989 -36 
Q 684 19 347 128 
L 347 722 
Q 666 556 975 473 
Q 1284 391 1588 391 
Q 1994 391 2212 530 
Q 2431 669 2431 922 
Q 2431 1156 2273 1281 
Q 2116 1406 1581 1522 
L 1381 1569 
Q 847 1681 609 1914 
Q 372 2147 372 2553 
Q 372 3047 722 3315 
Q 1072 3584 1716 3584 
Q 2034 3584 2315 3537 
Q 2597 3491 2834 3397 
z
" transform="scale(0.015625)"/>
       <path id="DejaVuSans-39" d="M 703 97 
L 703 672 
Q 941 559 1184 500 
Q 1428 441 1663 441 
Q 2288 441 2617 861 
Q 2947 1281 2994 2138 
Q 2813 1869 2534 1725 
Q 2256 1581 1919 1581 
Q 1219 1581 811 2004 
Q 403 2428 403 3163 
Q 403 3881 828 4315 
Q 1253 4750 1959 4750 
Q 2769 4750 3195 4129 
Q 3622 3509 3622 2328 
Q 3622 1225 3098 567 
Q 2575 -91 1691 -91 
Q 1453 -91 1209 -44 
Q 966 3 703 97 
z
M 1959 2075 
Q 2384 2075 2632 2365 
Q 2881 2656 2881 3163 
Q 2881 3666 2632 3958 
Q 2384 4250 1959 4250 
Q 1534 4250 1286 3958 
Q 1038 3666 1038 3163 
Q 1038 2656 1286 2365 
Q 1534 2075 1959 2075 
z
" transform="scale(0.015625)"/>
      </defs>
      <use xlink:href="#DejaVuSans-4b"/>
      <use xlink:href="#DejaVuSans-72" transform="translate(65.576172 0)"/>
      <use xlink:href="#DejaVuSans-65" transform="translate(104.439453 0)"/>
      <use xlink:href="#DejaVuSans-73" transform="translate(165.962891 0)"/>
      <use xlink:href="#DejaVuSans-73" transform="translate(218.0625 0)"/>
      <use xlink:href="#DejaVuSans-31" transform="translate(270.162109 0)"/>
      <use xlink:href="#DejaVuSans-39" transform="translate(333.785156 0)"/>
      <use xlink:href="#DejaVuSans-39" transform="translate(397.408203 0)"/>
      <use xlink:href="#DejaVuSans-31" transform="translate(461.03125 0)"/>
     </g>
    </g>
    <g id="line2d_43">
     <defs>
      <path id="m3ec60dcd17" d="M -5 5 
L 5 5 
L 5 -5 
L -5 -5 
z
" style="stroke: #000000; stroke-linejoin: miter"/>
     </defs>
     <g>
      <use xlink:href="#m3ec60dcd17" x="353.345348" y="111.951406" style="fill: #8de167; stroke: #000000; stroke-linejoin: miter"/>
     </g>
    </g>
    <g id="text_16">
     <!-- Lange1997 -->
     <g transform="translate(371.345348 115.451406) scale(0.1 -0.1)">
      <defs>
       <path id="DejaVuSans-4c" d="M 628 4666 
L 1259 4666 
L 1259 531 
L 3531 531 
L 3531 0 
L 628 0 
L 628 4666 
z
" transform="scale(0.015625)"/>
       <path id="DejaVuSans-6e" d="M 3513 2113 
L 3513 0 
L 2938 0 
L 2938 2094 
Q 2938 2591 2744 2837 
Q 2550 3084 2163 3084 
Q 1697 3084 1428 2787 
Q 1159 2491 1159 1978 
L 1159 0 
L 581 0 
L 581 3500 
L 1159 3500 
L 1159 2956 
Q 1366 3272 1645 3428 
Q 1925 3584 2291 3584 
Q 2894 3584 3203 3211 
Q 3513 2838 3513 2113 
z
" transform="scale(0.015625)"/>
       <path id="DejaVuSans-67" d="M 2906 1791 
Q 2906 2416 2648 2759 
Q 2391 3103 1925 3103 
Q 1463 3103 1205 2759 
Q 947 2416 947 1791 
Q 947 1169 1205 825 
Q 1463 481 1925 481 
Q 2391 481 2648 825 
Q 2906 1169 2906 1791 
z
M 3481 434 
Q 3481 -459 3084 -895 
Q 2688 -1331 1869 -1331 
Q 1566 -1331 1297 -1286 
Q 1028 -1241 775 -1147 
L 775 -588 
Q 1028 -725 1275 -790 
Q 1522 -856 1778 -856 
Q 2344 -856 2625 -561 
Q 2906 -266 2906 331 
L 2906 616 
Q 2728 306 2450 153 
Q 2172 0 1784 0 
Q 1141 0 747 490 
Q 353 981 353 1791 
Q 353 2603 747 3093 
Q 1141 3584 1784 3584 
Q 2172 3584 2450 3431 
Q 2728 3278 2906 2969 
L 2906 3500 
L 3481 3500 
L 3481 434 
z
" transform="scale(0.015625)"/>
      </defs>
      <use xlink:href="#DejaVuSans-4c"/>
      <use xlink:href="#DejaVuSans-61" transform="translate(55.712891 0)"/>
      <use xlink:href="#DejaVuSans-6e" transform="translate(116.992188 0)"/>
      <use xlink:href="#DejaVuSans-67" transform="translate(180.371094 0)"/>
      <use xlink:href="#DejaVuSans-65" transform="translate(243.847656 0)"/>
      <use xlink:href="#DejaVuSans-31" transform="translate(305.371094 0)"/>
      <use xlink:href="#DejaVuSans-39" transform="translate(368.994141 0)"/>
      <use xlink:href="#DejaVuSans-39" transform="translate(432.617188 0)"/>
      <use xlink:href="#DejaVuSans-37" transform="translate(496.240234 0)"/>
     </g>
    </g>
    <g id="line2d_44">
     <defs>
      <path id="m01ae1beaf2" d="M 0 -5 
L -5 5 
L 5 5 
z
" style="stroke: #000000; stroke-linejoin: miter"/>
     </defs>
     <g>
      <use xlink:href="#m01ae1beaf2" x="353.345348" y="126.629531" style="fill: #91148a; stroke: #000000; stroke-linejoin: miter"/>
     </g>
    </g>
    <g id="text_17">
     <!-- Ochs1999 -->
     <g transform="translate(371.345348 130.129531) scale(0.1 -0.1)">
      <defs>
       <path id="DejaVuSans-63" d="M 3122 3366 
L 3122 2828 
Q 2878 2963 2633 3030 
Q 2388 3097 2138 3097 
Q 1578 3097 1268 2742 
Q 959 2388 959 1747 
Q 959 1106 1268 751 
Q 1578 397 2138 397 
Q 2388 397 2633 464 
Q 2878 531 3122 666 
L 3122 134 
Q 2881 22 2623 -34 
Q 2366 -91 2075 -91 
Q 1284 -91 818 406 
Q 353 903 353 1747 
Q 353 2603 823 3093 
Q 1294 3584 2113 3584 
Q 2378 3584 2631 3529 
Q 2884 3475 3122 3366 
z
" transform="scale(0.015625)"/>
       <path id="DejaVuSans-68" d="M 3513 2113 
L 3513 0 
L 2938 0 
L 2938 2094 
Q 2938 2591 2744 2837 
Q 2550 3084 2163 3084 
Q 1697 3084 1428 2787 
Q 1159 2491 1159 1978 
L 1159 0 
L 581 0 
L 581 4863 
L 1159 4863 
L 1159 2956 
Q 1366 3272 1645 3428 
Q 1925 3584 2291 3584 
Q 2894 3584 3203 3211 
Q 3513 2838 3513 2113 
z
" transform="scale(0.015625)"/>
      </defs>
      <use xlink:href="#DejaVuSans-4f"/>
      <use xlink:href="#DejaVuSans-63" transform="translate(78.710938 0)"/>
      <use xlink:href="#DejaVuSans-68" transform="translate(133.691406 0)"/>
      <use xlink:href="#DejaVuSans-73" transform="translate(197.070312 0)"/>
      <use xlink:href="#DejaVuSans-31" transform="translate(249.169922 0)"/>
      <use xlink:href="#DejaVuSans-39" transform="translate(312.792969 0)"/>
      <use xlink:href="#DejaVuSans-39" transform="translate(376.416016 0)"/>
      <use xlink:href="#DejaVuSans-39" transform="translate(440.039062 0)"/>
     </g>
    </g>
    <g id="line2d_45">
     <defs>
      <path id="m8897ceba93" d="M -0 7.071068 
L 4.242641 0 
L -0 -7.071068 
L -4.242641 -0 
z
" style="stroke: #000000; stroke-linejoin: miter"/>
     </defs>
     <g>
      <use xlink:href="#m8897ceba93" x="353.345348" y="141.307656" style="fill: #9d4300; stroke: #000000; stroke-linejoin: miter"/>
     </g>
    </g>
    <g id="text_18">
     <!-- Liu2006 -->
     <g transform="translate(371.345348 144.807656) scale(0.1 -0.1)">
      <defs>
       <path id="DejaVuSans-75" d="M 544 1381 
L 544 3500 
L 1119 3500 
L 1119 1403 
Q 1119 906 1312 657 
Q 1506 409 1894 409 
Q 2359 409 2629 706 
Q 2900 1003 2900 1516 
L 2900 3500 
L 3475 3500 
L 3475 0 
L 2900 0 
L 2900 538 
Q 2691 219 2414 64 
Q 2138 -91 1772 -91 
Q 1169 -91 856 284 
Q 544 659 544 1381 
z
M 1991 3584 
L 1991 3584 
z
" transform="scale(0.015625)"/>
      </defs>
      <use xlink:href="#DejaVuSans-4c"/>
      <use xlink:href="#DejaVuSans-69" transform="translate(55.712891 0)"/>
      <use xlink:href="#DejaVuSans-75" transform="translate(83.496094 0)"/>
      <use xlink:href="#DejaVuSans-32" transform="translate(146.875 0)"/>
      <use xlink:href="#DejaVuSans-30" transform="translate(210.498047 0)"/>
      <use xlink:href="#DejaVuSans-30" transform="translate(274.121094 0)"/>
      <use xlink:href="#DejaVuSans-36" transform="translate(337.744141 0)"/>
     </g>
    </g>
    <g id="line2d_46">
     <defs>
      <path id="m212816c64e" d="M -2.5 5 
L 0 2.5 
L 2.5 5 
L 5 2.5 
L 2.5 0 
L 5 -2.5 
L 2.5 -5 
L 0 -2.5 
L -2.5 -5 
L -5 -2.5 
L -2.5 0 
L -5 2.5 
z
" style="stroke: #000000; stroke-linejoin: miter"/>
     </defs>
     <g>
      <use xlink:href="#m212816c64e" x="353.345348" y="155.985781" style="fill: #00398a; stroke: #000000; stroke-linejoin: miter"/>
     </g>
    </g>
    <g id="text_19">
     <!-- Guo2014 -->
     <g transform="translate(371.345348 159.485781) scale(0.1 -0.1)">
      <defs>
       <path id="DejaVuSans-47" d="M 3809 666 
L 3809 1919 
L 2778 1919 
L 2778 2438 
L 4434 2438 
L 4434 434 
Q 4069 175 3628 42 
Q 3188 -91 2688 -91 
Q 1594 -91 976 548 
Q 359 1188 359 2328 
Q 359 3472 976 4111 
Q 1594 4750 2688 4750 
Q 3144 4750 3555 4637 
Q 3966 4525 4313 4306 
L 4313 3634 
Q 3963 3931 3569 4081 
Q 3175 4231 2741 4231 
Q 1884 4231 1454 3753 
Q 1025 3275 1025 2328 
Q 1025 1384 1454 906 
Q 1884 428 2741 428 
Q 3075 428 3337 486 
Q 3600 544 3809 666 
z
" transform="scale(0.015625)"/>
       <path id="DejaVuSans-6f" d="M 1959 3097 
Q 1497 3097 1228 2736 
Q 959 2375 959 1747 
Q 959 1119 1226 758 
Q 1494 397 1959 397 
Q 2419 397 2687 759 
Q 2956 1122 2956 1747 
Q 2956 2369 2687 2733 
Q 2419 3097 1959 3097 
z
M 1959 3584 
Q 2709 3584 3137 3096 
Q 3566 2609 3566 1747 
Q 3566 888 3137 398 
Q 2709 -91 1959 -91 
Q 1206 -91 779 398 
Q 353 888 353 1747 
Q 353 2609 779 3096 
Q 1206 3584 1959 3584 
z
" transform="scale(0.015625)"/>
      </defs>
      <use xlink:href="#DejaVuSans-47"/>
      <use xlink:href="#DejaVuSans-75" transform="translate(77.490234 0)"/>
      <use xlink:href="#DejaVuSans-6f" transform="translate(140.869141 0)"/>
      <use xlink:href="#DejaVuSans-32" transform="translate(202.050781 0)"/>
      <use xlink:href="#DejaVuSans-30" transform="translate(265.673828 0)"/>
      <use xlink:href="#DejaVuSans-31" transform="translate(329.296875 0)"/>
      <use xlink:href="#DejaVuSans-34" transform="translate(392.919922 0)"/>
     </g>
    </g>
   </g>
   <g id="line2d_47">
    <g clip-path="url(#pf6ce9f6c2e)">
     <use xlink:href="#m6b4b1fd8d2" x="124.788653" y="241.375913" style="fill: #ff5e78; stroke: #000000"/>
     <use xlink:href="#m6b4b1fd8d2" x="125.304851" y="241.375913" style="fill: #ff5e78; stroke: #000000"/>
     <use xlink:href="#m6b4b1fd8d2" x="120.727704" y="241.375913" style="fill: #ff5e78; stroke: #000000"/>
     <use xlink:href="#m6b4b1fd8d2" x="125.324126" y="241.375913" style="fill: #ff5e78; stroke: #000000"/>
     <use xlink:href="#m6b4b1fd8d2" x="258.236106" y="197.917024" style="fill: #ff5e78; stroke: #000000"/>
     <use xlink:href="#m6b4b1fd8d2" x="247.625852" y="194.777121" style="fill: #ff5e78; stroke: #000000"/>
     <use xlink:href="#m6b4b1fd8d2" x="250.407197" y="189.204868" style="fill: #ff5e78; stroke: #000000"/>
     <use xlink:href="#m6b4b1fd8d2" x="254.075195" y="190.26967" style="fill: #ff5e78; stroke: #000000"/>
     <use xlink:href="#m6b4b1fd8d2" x="281.849065" y="179.601232" style="fill: #ff5e78; stroke: #000000"/>
     <use xlink:href="#m6b4b1fd8d2" x="229.390882" y="185.747296" style="fill: #ff5e78; stroke: #000000"/>
     <use xlink:href="#m6b4b1fd8d2" x="253.791232" y="193.852602" style="fill: #ff5e78; stroke: #000000"/>
     <use xlink:href="#m6b4b1fd8d2" x="200.040992" y="153.268028" style="fill: #ff5e78; stroke: #000000"/>
     <use xlink:href="#m6b4b1fd8d2" x="190.019428" y="142.587996" style="fill: #ff5e78; stroke: #000000"/>
     <use xlink:href="#m6b4b1fd8d2" x="251.110636" y="191.208132" style="fill: #ff5e78; stroke: #000000"/>
     <use xlink:href="#m6b4b1fd8d2" x="247.659953" y="187.235567" style="fill: #ff5e78; stroke: #000000"/>
     <use xlink:href="#m6b4b1fd8d2" x="248.299321" y="185.232776" style="fill: #ff5e78; stroke: #000000"/>
     <use xlink:href="#m6b4b1fd8d2" x="100.453512" y="111.982036" style="fill: #ff5e78; stroke: #000000"/>
     <use xlink:href="#m6b4b1fd8d2" x="165.756927" y="111.784663" style="fill: #ff5e78; stroke: #000000"/>
     <use xlink:href="#m6b4b1fd8d2" x="76.418209" y="240.903957" style="fill: #ff5e78; stroke: #000000"/>
     <use xlink:href="#m6b4b1fd8d2" x="140.533486" y="240.904577" style="fill: #ff5e78; stroke: #000000"/>
     <use xlink:href="#m6b4b1fd8d2" x="143.809919" y="241.11289" style="fill: #ff5e78; stroke: #000000"/>
     <use xlink:href="#m6b4b1fd8d2" x="79.287567" y="241.323711" style="fill: #ff5e78; stroke: #000000"/>
     <use xlink:href="#m6b4b1fd8d2" x="131.561441" y="240.954048" style="fill: #ff5e78; stroke: #000000"/>
     <use xlink:href="#m6b4b1fd8d2" x="122.199436" y="241.012295" style="fill: #ff5e78; stroke: #000000"/>
     <use xlink:href="#m6b4b1fd8d2" x="144.766473" y="241.166261" style="fill: #ff5e78; stroke: #000000"/>
     <use xlink:href="#m6b4b1fd8d2" x="150.956409" y="234.995716" style="fill: #ff5e78; stroke: #000000"/>
     <use xlink:href="#m6b4b1fd8d2" x="159.674" y="231.156399" style="fill: #ff5e78; stroke: #000000"/>
     <use xlink:href="#m6b4b1fd8d2" x="153.816865" y="234.764922" style="fill: #ff5e78; stroke: #000000"/>
     <use xlink:href="#m6b4b1fd8d2" x="152.380091" y="235.146204" style="fill: #ff5e78; stroke: #000000"/>
     <use xlink:href="#m6b4b1fd8d2" x="164.322991" y="230.702484" style="fill: #ff5e78; stroke: #000000"/>
     <use xlink:href="#m6b4b1fd8d2" x="159.636876" y="230.604967" style="fill: #ff5e78; stroke: #000000"/>
     <use xlink:href="#m6b4b1fd8d2" x="158.562364" y="226.614366" style="fill: #ff5e78; stroke: #000000"/>
     <use xlink:href="#m6b4b1fd8d2" x="157.86244" y="226.963966" style="fill: #ff5e78; stroke: #000000"/>
     <use xlink:href="#m6b4b1fd8d2" x="175.295856" y="226.458592" style="fill: #ff5e78; stroke: #000000"/>
     <use xlink:href="#m6b4b1fd8d2" x="176.005804" y="226.568486" style="fill: #ff5e78; stroke: #000000"/>
     <use xlink:href="#m6b4b1fd8d2" x="176.596393" y="227.823904" style="fill: #ff5e78; stroke: #000000"/>
     <use xlink:href="#m6b4b1fd8d2" x="177.483236" y="227.898462" style="fill: #ff5e78; stroke: #000000"/>
     <use xlink:href="#m6b4b1fd8d2" x="177.469375" y="228.4986" style="fill: #ff5e78; stroke: #000000"/>
     <use xlink:href="#m6b4b1fd8d2" x="178.835306" y="229.011432" style="fill: #ff5e78; stroke: #000000"/>
     <use xlink:href="#m6b4b1fd8d2" x="178.057433" y="226.453015" style="fill: #ff5e78; stroke: #000000"/>
     <use xlink:href="#m6b4b1fd8d2" x="176.482913" y="226.40569" style="fill: #ff5e78; stroke: #000000"/>
     <use xlink:href="#m6b4b1fd8d2" x="175.503235" y="226.26477" style="fill: #ff5e78; stroke: #000000"/>
     <use xlink:href="#m6b4b1fd8d2" x="185.731132" y="237.762335" style="fill: #ff5e78; stroke: #000000"/>
     <use xlink:href="#m6b4b1fd8d2" x="175.174958" y="232.86272" style="fill: #ff5e78; stroke: #000000"/>
     <use xlink:href="#m6b4b1fd8d2" x="183.692813" y="234.244371" style="fill: #ff5e78; stroke: #000000"/>
     <use xlink:href="#m6b4b1fd8d2" x="185.268266" y="236.190722" style="fill: #ff5e78; stroke: #000000"/>
    </g>
   </g>
   <g id="line2d_48">
    <g clip-path="url(#pf6ce9f6c2e)">
     <use xlink:href="#m3ec60dcd17" x="187.654159" y="218.212016" style="fill: #8de167; stroke: #000000; stroke-linejoin: miter"/>
     <use xlink:href="#m3ec60dcd17" x="186.900649" y="241.375913" style="fill: #8de167; stroke: #000000; stroke-linejoin: miter"/>
     <use xlink:href="#m3ec60dcd17" x="113.632825" y="241.375913" style="fill: #8de167; stroke: #000000; stroke-linejoin: miter"/>
     <use xlink:href="#m3ec60dcd17" x="151.352678" y="241.375913" style="fill: #8de167; stroke: #000000; stroke-linejoin: miter"/>
     <use xlink:href="#m3ec60dcd17" x="220.188087" y="241.375913" style="fill: #8de167; stroke: #000000; stroke-linejoin: miter"/>
     <use xlink:href="#m3ec60dcd17" x="222.199874" y="241.375913" style="fill: #8de167; stroke: #000000; stroke-linejoin: miter"/>
     <use xlink:href="#m3ec60dcd17" x="199.666005" y="241.375913" style="fill: #8de167; stroke: #000000; stroke-linejoin: miter"/>
     <use xlink:href="#m3ec60dcd17" x="168.24018" y="241.375913" style="fill: #8de167; stroke: #000000; stroke-linejoin: miter"/>
     <use xlink:href="#m3ec60dcd17" x="177.65957" y="241.375913" style="fill: #8de167; stroke: #000000; stroke-linejoin: miter"/>
     <use xlink:href="#m3ec60dcd17" x="158.134274" y="241.375913" style="fill: #8de167; stroke: #000000; stroke-linejoin: miter"/>
     <use xlink:href="#m3ec60dcd17" x="171.808352" y="241.375913" style="fill: #8de167; stroke: #000000; stroke-linejoin: miter"/>
     <use xlink:href="#m3ec60dcd17" x="161.901827" y="241.375913" style="fill: #8de167; stroke: #000000; stroke-linejoin: miter"/>
     <use xlink:href="#m3ec60dcd17" x="194.834672" y="214.118173" style="fill: #8de167; stroke: #000000; stroke-linejoin: miter"/>
     <use xlink:href="#m3ec60dcd17" x="242.793405" y="93.375712" style="fill: #8de167; stroke: #000000; stroke-linejoin: miter"/>
     <use xlink:href="#m3ec60dcd17" x="250.018242" y="72.802855" style="fill: #8de167; stroke: #000000; stroke-linejoin: miter"/>
     <use xlink:href="#m3ec60dcd17" x="214.780541" y="189.710577" style="fill: #8de167; stroke: #000000; stroke-linejoin: miter"/>
    </g>
   </g>
   <g id="line2d_49">
    <g clip-path="url(#pf6ce9f6c2e)">
     <use xlink:href="#m01ae1beaf2" x="214.762596" y="189.70541" style="fill: #91148a; stroke: #000000; stroke-linejoin: miter"/>
     <use xlink:href="#m01ae1beaf2" x="214.235998" y="189.808555" style="fill: #91148a; stroke: #000000; stroke-linejoin: miter"/>
     <use xlink:href="#m01ae1beaf2" x="214.209723" y="189.813701" style="fill: #91148a; stroke: #000000; stroke-linejoin: miter"/>
     <use xlink:href="#m01ae1beaf2" x="213.058804" y="190.039132" style="fill: #91148a; stroke: #000000; stroke-linejoin: miter"/>
     <use xlink:href="#m01ae1beaf2" x="212.798634" y="190.090092" style="fill: #91148a; stroke: #000000; stroke-linejoin: miter"/>
     <use xlink:href="#m01ae1beaf2" x="208.629524" y="190.906697" style="fill: #91148a; stroke: #000000; stroke-linejoin: miter"/>
     <use xlink:href="#m01ae1beaf2" x="206.062828" y="191.409437" style="fill: #91148a; stroke: #000000; stroke-linejoin: miter"/>
     <use xlink:href="#m01ae1beaf2" x="202.79919" y="192.048687" style="fill: #91148a; stroke: #000000; stroke-linejoin: miter"/>
     <use xlink:href="#m01ae1beaf2" x="202.55898" y="192.095737" style="fill: #91148a; stroke: #000000; stroke-linejoin: miter"/>
     <use xlink:href="#m01ae1beaf2" x="200.677311" y="192.464301" style="fill: #91148a; stroke: #000000; stroke-linejoin: miter"/>
     <use xlink:href="#m01ae1beaf2" x="200.087695" y="192.579789" style="fill: #91148a; stroke: #000000; stroke-linejoin: miter"/>
     <use xlink:href="#m01ae1beaf2" x="199.500857" y="192.694733" style="fill: #91148a; stroke: #000000; stroke-linejoin: miter"/>
     <use xlink:href="#m01ae1beaf2" x="321.239313" y="201.959993" style="fill: #91148a; stroke: #000000; stroke-linejoin: miter"/>
     <use xlink:href="#m01ae1beaf2" x="320.72191" y="202.015071" style="fill: #91148a; stroke: #000000; stroke-linejoin: miter"/>
     <use xlink:href="#m01ae1beaf2" x="316.706364" y="202.442526" style="fill: #91148a; stroke: #000000; stroke-linejoin: miter"/>
     <use xlink:href="#m01ae1beaf2" x="314.481256" y="202.679389" style="fill: #91148a; stroke: #000000; stroke-linejoin: miter"/>
     <use xlink:href="#m01ae1beaf2" x="313.946985" y="202.736262" style="fill: #91148a; stroke: #000000; stroke-linejoin: miter"/>
     <use xlink:href="#m01ae1beaf2" x="312.142152" y="202.928387" style="fill: #91148a; stroke: #000000; stroke-linejoin: miter"/>
     <use xlink:href="#m01ae1beaf2" x="304.760593" y="203.714154" style="fill: #91148a; stroke: #000000; stroke-linejoin: miter"/>
     <use xlink:href="#m01ae1beaf2" x="302.778253" y="203.925174" style="fill: #91148a; stroke: #000000; stroke-linejoin: miter"/>
     <use xlink:href="#m01ae1beaf2" x="300.718912" y="204.144391" style="fill: #91148a; stroke: #000000; stroke-linejoin: miter"/>
    </g>
   </g>
   <g id="line2d_50">
    <g clip-path="url(#pf6ce9f6c2e)">
     <use xlink:href="#m8897ceba93" x="94.592596" y="82.716253" style="fill: #9d4300; stroke: #000000; stroke-linejoin: miter"/>
     <use xlink:href="#m8897ceba93" x="133.893203" y="76.772955" style="fill: #9d4300; stroke: #000000; stroke-linejoin: miter"/>
     <use xlink:href="#m8897ceba93" x="173.56536" y="69.265773" style="fill: #9d4300; stroke: #000000; stroke-linejoin: miter"/>
     <use xlink:href="#m8897ceba93" x="173.311585" y="96.240556" style="fill: #9d4300; stroke: #000000; stroke-linejoin: miter"/>
     <use xlink:href="#m8897ceba93" x="221.356434" y="95.125874" style="fill: #9d4300; stroke: #000000; stroke-linejoin: miter"/>
     <use xlink:href="#m8897ceba93" x="207.382061" y="126.617952" style="fill: #9d4300; stroke: #000000; stroke-linejoin: miter"/>
     <use xlink:href="#m8897ceba93" x="150.24252" y="137.516864" style="fill: #9d4300; stroke: #000000; stroke-linejoin: miter"/>
     <use xlink:href="#m8897ceba93" x="177.519723" y="166.202483" style="fill: #9d4300; stroke: #000000; stroke-linejoin: miter"/>
     <use xlink:href="#m8897ceba93" x="132.471892" y="116.095429" style="fill: #9d4300; stroke: #000000; stroke-linejoin: miter"/>
     <use xlink:href="#m8897ceba93" x="116.713539" y="96.387493" style="fill: #9d4300; stroke: #000000; stroke-linejoin: miter"/>
     <use xlink:href="#m8897ceba93" x="107.385641" y="29.528571" style="fill: #9d4300; stroke: #000000; stroke-linejoin: miter"/>
     <use xlink:href="#m8897ceba93" x="137.338717" y="14.130884" style="fill: #9d4300; stroke: #000000; stroke-linejoin: miter"/>
     <use xlink:href="#m8897ceba93" x="143.744721" y="45.849328" style="fill: #9d4300; stroke: #000000; stroke-linejoin: miter"/>
     <use xlink:href="#m8897ceba93" x="185.862193" y="48.320062" style="fill: #9d4300; stroke: #000000; stroke-linejoin: miter"/>
     <use xlink:href="#m8897ceba93" x="178.527293" y="81.559088" style="fill: #9d4300; stroke: #000000; stroke-linejoin: miter"/>
     <use xlink:href="#m8897ceba93" x="183.059113" y="170.956502" style="fill: #9d4300; stroke: #000000; stroke-linejoin: miter"/>
     <use xlink:href="#m8897ceba93" x="225.730413" y="187.991377" style="fill: #9d4300; stroke: #000000; stroke-linejoin: miter"/>
     <use xlink:href="#m8897ceba93" x="183.478999" y="176.271821" style="fill: #9d4300; stroke: #000000; stroke-linejoin: miter"/>
     <use xlink:href="#m8897ceba93" x="145.350423" y="156.453226" style="fill: #9d4300; stroke: #000000; stroke-linejoin: miter"/>
     <use xlink:href="#m8897ceba93" x="126.453468" y="144.322433" style="fill: #9d4300; stroke: #000000; stroke-linejoin: miter"/>
     <use xlink:href="#m8897ceba93" x="143.28686" y="125.189682" style="fill: #9d4300; stroke: #000000; stroke-linejoin: miter"/>
     <use xlink:href="#m8897ceba93" x="167.676568" y="109.365041" style="fill: #9d4300; stroke: #000000; stroke-linejoin: miter"/>
     <use xlink:href="#m8897ceba93" x="185.166973" y="88.462081" style="fill: #9d4300; stroke: #000000; stroke-linejoin: miter"/>
     <use xlink:href="#m8897ceba93" x="123.429484" y="60.904167" style="fill: #9d4300; stroke: #000000; stroke-linejoin: miter"/>
     <use xlink:href="#m8897ceba93" x="95.691505" y="82.706031" style="fill: #9d4300; stroke: #000000; stroke-linejoin: miter"/>
     <use xlink:href="#m8897ceba93" x="79.078201" y="97.879964" style="fill: #9d4300; stroke: #000000; stroke-linejoin: miter"/>
     <use xlink:href="#m8897ceba93" x="48.761782" y="116.499838" style="fill: #9d4300; stroke: #000000; stroke-linejoin: miter"/>
    </g>
   </g>
   <g id="line2d_51">
    <g clip-path="url(#pf6ce9f6c2e)">
     <use xlink:href="#m212816c64e" x="161.606867" y="241.375913" style="fill: #00398a; stroke: #000000; stroke-linejoin: miter"/>
     <use xlink:href="#m212816c64e" x="177.717157" y="241.375913" style="fill: #00398a; stroke: #000000; stroke-linejoin: miter"/>
     <use xlink:href="#m212816c64e" x="147.508274" y="241.375913" style="fill: #00398a; stroke: #000000; stroke-linejoin: miter"/>
    </g>
   </g>
  </g>
 </g>
 <defs>
  <clipPath id="pf6ce9f6c2e">
   <rect x="39.61149" y="3.00024" width="288.106991" height="248.739833"/>
  </clipPath>
 </defs>
</svg>
